<svg id="Layer_1" data-name="Layer 1" xmlns="http://www.w3.org/2000/svg" viewBox="0 0 84.18 26.36"><defs><style>.cls-1{fill:#ff5a60;}</style></defs><path class="cls-1" d="M265.73,399.11a6.07,6.07,0,0,1,.63-2.72c.94-2.05,1.86-4.11,2.84-6.13,1.2-2.46,2.45-4.89,3.7-7.33a27.21,27.21,0,0,1,1.37-2.49,4.23,4.23,0,0,1,3.52-2,4.31,4.31,0,0,1,3.91,2,21.34,21.34,0,0,1,1.27,2.23q1.33,2.55,2.6,5.13c.66,1.33,1.28,2.68,1.91,4s1.35,2.85,2,4.28a7.27,7.27,0,0,1,.79,2.84,5.56,5.56,0,0,1-1,3.43,5.63,5.63,0,0,1-4.58,2.44,5.94,5.94,0,0,1-2.51-.51,11.37,11.37,0,0,1-3.74-2.7c-.41-.41-.39-.38-.83,0a21.57,21.57,0,0,1-2.53,2.07,6.19,6.19,0,0,1-5.1,1A5.65,5.65,0,0,1,265.73,399.11Zm5.45,3.79a4.54,4.54,0,0,0,2.92-.83c.87-.67,1.67-1.41,2.51-2.11.2-.17.15-.3,0-.49a17,17,0,0,1-2.44-4,7,7,0,0,1-.61-3.85,4.11,4.11,0,0,1,1.29-2.48,4.58,4.58,0,0,1,3.8-1.14,4.28,4.28,0,0,1,3.16,1.94,5.08,5.08,0,0,1,.42,4.47,15.84,15.84,0,0,1-2.75,4.93c-.28.35-.28.46,0,.75.47.42.93.86,1.41,1.27a5.44,5.44,0,0,0,4.07,1.51,3.59,3.59,0,0,0,2.56-1.34,3.88,3.88,0,0,0,.45-4.37c-1.43-3.14-2.94-6.25-4.43-9.36-.52-1.08-1.07-2.15-1.63-3.21s-1.11-2.13-1.71-3.16a2.31,2.31,0,0,0-1.37-1.1,2.47,2.47,0,0,0-2.72.67,6.42,6.42,0,0,0-.84,1.17c-.68,1.27-1.33,2.57-2,3.86s-1.34,2.59-2,3.9c-1.05,2.18-2.09,4.37-3.08,6.58a7.39,7.39,0,0,0-.71,2.3A3.71,3.71,0,0,0,271.18,402.9Zm6.85-4.55c.12-.18.19-.31.27-.42.23-.33.47-.65.69-1a10.1,10.1,0,0,0,1.65-3.68,2.78,2.78,0,0,0-.85-2.87,2.84,2.84,0,0,0-3.11-.32,2.55,2.55,0,0,0-1.36,2.85,13.57,13.57,0,0,0,.69,2.22A14.12,14.12,0,0,0,278,398.35Z" transform="translate(-265.73 -378.41)"/><path class="cls-1" d="M320.84,388.59l.32-.17a4.15,4.15,0,0,1,3.75-.37,4.85,4.85,0,0,1,3.44,4.11,5.16,5.16,0,0,1-2.29,5.32,4.56,4.56,0,0,1-4.32.48,6.78,6.78,0,0,1-.89-.5c-.13.6-.56.6-1,.58s-.89,0-1.33,0c-.25,0-.36-.11-.36-.35a2.62,2.62,0,0,0,0-.28V384c0-.64,0-.64.66-.64h1.37c.63,0,.64,0,.64.62v4.19C320.82,388.26,320.83,388.4,320.84,388.59Zm0,4.42c0,.47,0,.94,0,1.41a1.16,1.16,0,0,0,.24.62,2.87,2.87,0,0,0,4.45-.84,2.94,2.94,0,0,0-.74-3.34,3.17,3.17,0,0,0-3.46-.12,1.05,1.05,0,0,0-.51.94C320.83,392.13,320.82,392.57,320.82,393Z" transform="translate(-265.73 -378.41)"/><path class="cls-1" d="M342.28,388.65c.23-.13.4-.25.58-.34a4.52,4.52,0,0,1,4.93.43,5.47,5.47,0,0,1,1.7,6.47,5.16,5.16,0,0,1-5.19,3.05,5.42,5.42,0,0,1-1.32-.45,5.85,5.85,0,0,1-.7-.42c0,.71-.47.66-.93.65H340c-.25,0-.37-.11-.36-.35V383.92c0-.59,0-.6.58-.6h1.45c.55,0,.56,0,.56.58v4.3C342.26,388.34,342.27,388.48,342.28,388.65Zm0,4.32c0,.47,0,.94,0,1.41a.78.78,0,0,0,.13.46,2.55,2.55,0,0,0,2.72.84,2.47,2.47,0,0,0,2-1.8,2.88,2.88,0,0,0-.5-2.69,3.09,3.09,0,0,0-3.53-.61,1.42,1.42,0,0,0-.86,1.37C342.25,392.28,342.26,392.63,342.26,393Z" transform="translate(-265.73 -378.41)"/><path class="cls-1" d="M303,388.6c.12-.6.55-.6,1-.58H305c.7,0,.7,0,.7.73v6.64c0,.7,0,1.39,0,2.08,0,.5-.07.57-.56.57s-.83,0-1.25,0-.82,0-.94-.56a2.61,2.61,0,0,0-.28.13,4.63,4.63,0,0,1-5.5-.55,5.23,5.23,0,0,1-1.69-5,5,5,0,0,1,5.43-4.24,7,7,0,0,1,1.65.57A2.74,2.74,0,0,1,303,388.6Zm0,4.39c0-.45,0-.91,0-1.37a.89.89,0,0,0-.42-.82,3,3,0,0,0-1.89-.51,2.67,2.67,0,0,0-2.56,3.41,2.85,2.85,0,0,0,4.48,1.5,1.23,1.23,0,0,0,.37-.72A14.77,14.77,0,0,0,303,393Z" transform="translate(-265.73 -378.41)"/><path class="cls-1" d="M331.81,388.53a12.09,12.09,0,0,1,2-.68,4,4,0,0,1,4,1.49,3.9,3.9,0,0,1,.7,2.44c0,1.93,0,3.86,0,5.79,0,.36-.13.49-.48.48-.55,0-1.1,0-1.65,0s-.54-.05-.54-.53c0-1.69,0-3.37,0-5.05a5.66,5.66,0,0,0-.09-1.09,1.24,1.24,0,0,0-.79-1,2.65,2.65,0,0,0-2.56.36,1,1,0,0,0-.39.84c0,1.95,0,3.89,0,5.83,0,.62,0,.64-.63.64h-1.49c-.51,0-.54,0-.54-.52v-5.4c0-1.2,0-2.4,0-3.6,0-.38.12-.53.49-.5s.76,0,1.14,0C331.6,388,331.63,388,331.81,388.53Z" transform="translate(-265.73 -378.41)"/><path class="cls-1" d="M313.9,388.59a4.1,4.1,0,0,1,2.58-.81c.66.06.74.11.74.76,0,.47,0,.94,0,1.41,0,.3-.11.38-.41.33a3.38,3.38,0,0,0-2.52.4.81.81,0,0,0-.44.79c0,2,0,4,0,6,0,.54,0,.58-.58.58s-1.09,0-1.64,0c-.31,0-.45-.1-.45-.42q0-4.59,0-9.16c0-.32.11-.45.44-.44h1.48C313.5,388,313.8,388.12,313.9,388.59Z" transform="translate(-265.73 -378.41)"/><path class="cls-1" d="M307,393c0-1.47,0-2.94,0-4.42,0-.56,0-.59.6-.59h1.64c.35,0,.5.11.5.47,0,3,0,6.05,0,9.08,0,.36-.15.48-.5.47-.58,0-1.17,0-1.75,0-.39,0-.5-.16-.5-.52Q307.06,395.28,307,393Z" transform="translate(-265.73 -378.41)"/><path class="cls-1" d="M308.42,383.32a1.7,1.7,0,0,1,1.76,1.74,1.71,1.71,0,0,1-1.76,1.71,1.73,1.73,0,1,1,0-3.45Z" transform="translate(-265.73 -378.41)"/></svg>